<svg xmlns="http://www.w3.org/2000/svg" width="200" height="200" viewBox="0 0 24 24" fill="white">
  <path d="M12 0.297C5.373 0.297 0 5.67 0 12.297c0 5.304 3.438 9.8 8.207 11.387.6.11.793-.26.793-.577 0-.285-.01-1.04-.016-2.04-3.34.726-4.042-1.61-4.042-1.61-.546-1.386-1.334-1.754-1.334-1.754-1.089-.744.083-.729.083-.729 1.205.085 1.84 1.238 1.84 1.238 1.07 1.835 2.805 1.305 3.49.997.108-.776.42-1.305.762-1.605-2.667-.305-5.467-1.334-5.467-5.926 0-1.31.468-2.382 1.236-3.222-.124-.303-.536-1.525.116-3.18 0 0 1.008-.323 3.3 1.23a11.47 11.47 0 0 1 3-.405c1.02.005 2.04.14 3 .405 2.292-1.554 3.3-1.23 3.3-1.23.653 1.655.24 2.877.118 3.18.77.84 1.236 1.91 1.236 3.222 0 4.605-2.805 5.618-5.475 5.916.432.372.81 1.104.81 2.226 0 1.606-.014 2.898-.014 3.292 0 .32.19.693.8.575C20.565 22.092 24 17.6 24 12.297c0-6.627-5.373-12-12-12"/>
</svg>
